<svg xmlns="http://www.w3.org/2000/svg" width="940" height="1056" viewBox="0 0 940 1056" role="img">
<defs><marker id="a-teal" markerUnits="userSpaceOnUse" markerWidth="9" markerHeight="9" refX="8" refY="4.5" orient="auto"><path d="M0.5,0.8 L8.4,4.5 L0.5,8.2 L2.4,4.5 Z" fill="#48D7FE"/></marker><marker id="b-teal" markerUnits="userSpaceOnUse" markerWidth="9" markerHeight="9" refX="1" refY="4.5" orient="auto"><path d="M8.5,0.8 L0.6,4.5 L8.5,8.2 L6.6,4.5 Z" fill="#48D7FE"/></marker><marker id="a-amber" markerUnits="userSpaceOnUse" markerWidth="9" markerHeight="9" refX="8" refY="4.5" orient="auto"><path d="M0.5,0.8 L8.4,4.5 L0.5,8.2 L2.4,4.5 Z" fill="#F7B83D"/></marker><marker id="b-amber" markerUnits="userSpaceOnUse" markerWidth="9" markerHeight="9" refX="1" refY="4.5" orient="auto"><path d="M8.5,0.8 L0.6,4.5 L8.5,8.2 L6.6,4.5 Z" fill="#F7B83D"/></marker><marker id="a-green" markerUnits="userSpaceOnUse" markerWidth="9" markerHeight="9" refX="8" refY="4.5" orient="auto"><path d="M0.5,0.8 L8.4,4.5 L0.5,8.2 L2.4,4.5 Z" fill="#5FD37F"/></marker><marker id="b-green" markerUnits="userSpaceOnUse" markerWidth="9" markerHeight="9" refX="1" refY="4.5" orient="auto"><path d="M8.5,0.8 L0.6,4.5 L8.5,8.2 L6.6,4.5 Z" fill="#5FD37F"/></marker><marker id="a-risk" markerUnits="userSpaceOnUse" markerWidth="9" markerHeight="9" refX="8" refY="4.5" orient="auto"><path d="M0.5,0.8 L8.4,4.5 L0.5,8.2 L2.4,4.5 Z" fill="#E0564B"/></marker><marker id="b-risk" markerUnits="userSpaceOnUse" markerWidth="9" markerHeight="9" refX="1" refY="4.5" orient="auto"><path d="M8.5,0.8 L0.6,4.5 L8.5,8.2 L6.6,4.5 Z" fill="#E0564B"/></marker><marker id="a-dim" markerUnits="userSpaceOnUse" markerWidth="9" markerHeight="9" refX="8" refY="4.5" orient="auto"><path d="M0.5,0.8 L8.4,4.5 L0.5,8.2 L2.4,4.5 Z" fill="#5E696E"/></marker><marker id="b-dim" markerUnits="userSpaceOnUse" markerWidth="9" markerHeight="9" refX="1" refY="4.5" orient="auto"><path d="M8.5,0.8 L0.6,4.5 L8.5,8.2 L6.6,4.5 Z" fill="#5E696E"/></marker><marker id="a-ash" markerUnits="userSpaceOnUse" markerWidth="9" markerHeight="9" refX="8" refY="4.5" orient="auto"><path d="M0.5,0.8 L8.4,4.5 L0.5,8.2 L2.4,4.5 Z" fill="#9AA5AA"/></marker><marker id="b-ash" markerUnits="userSpaceOnUse" markerWidth="9" markerHeight="9" refX="1" refY="4.5" orient="auto"><path d="M8.5,0.8 L0.6,4.5 L8.5,8.2 L6.6,4.5 Z" fill="#9AA5AA"/></marker><marker id="a-mist" markerUnits="userSpaceOnUse" markerWidth="9" markerHeight="9" refX="8" refY="4.5" orient="auto"><path d="M0.5,0.8 L8.4,4.5 L0.5,8.2 L2.4,4.5 Z" fill="#E9EDEE"/></marker><marker id="b-mist" markerUnits="userSpaceOnUse" markerWidth="9" markerHeight="9" refX="1" refY="4.5" orient="auto"><path d="M8.5,0.8 L0.6,4.5 L8.5,8.2 L6.6,4.5 Z" fill="#E9EDEE"/></marker>
<pattern id="grid" width="22" height="22" patternUnits="userSpaceOnUse"><circle cx="1" cy="1" r="0.8" fill="#1A2124"/></pattern>
</defs>
<rect x="0" y="0" width="940" height="1056" rx="14" fill="#0C0F11"/>
<rect x="0" y="0" width="940" height="1056" rx="14" fill="url(#grid)" opacity="0.5"/>
<rect x="0.5" y="0.5" width="939" height="1055" rx="13.5" fill="none" stroke="#1A2124" stroke-width="1"/>
<g><rect x="32" y="30" width="3" height="18" rx="1.5" fill="#48D7FE"/><text x="45" y="44" font-family="'Space Grotesk','Inter',ui-sans-serif,system-ui,-apple-system,'Segoe UI',Roboto,sans-serif" font-size="14" font-weight="600" fill="#E9EDEE" letter-spacing="0.2">How a stream request flows</text><text x="908" y="44" font-family="'JetBrains Mono',ui-monospace,SFMono-Regular,Menlo,Consolas,monospace" font-size="9.8" font-weight="400" fill="#5E696E" text-anchor="end">streamGate → relay → masq-proxy</text><line x1="32" y1="60" x2="908" y2="60" stroke="#232B2F" stroke-width="1"/></g><path d="M 420 163 L 420 195" fill="none" stroke="#9AA5AA" stroke-width="1.5" stroke-linecap="round" marker-end="url(#a-ash)" opacity="0.9"/><path d="M 591 232 L 670 232" fill="none" stroke="#E0564B" stroke-width="1.5" stroke-dasharray="4 3" stroke-linecap="round" marker-end="url(#a-risk)" opacity="0.75"/><path d="M 420 267 L 420 305" fill="none" stroke="#48D7FE" stroke-width="1.5" stroke-linecap="round" marker-end="url(#a-teal)" opacity="0.9"/><path d="M 420 377 L 420 401" fill="none" stroke="#48D7FE" stroke-width="1.5" stroke-linecap="round" marker-end="url(#a-teal)" opacity="0.9"/><path d="M 420 470 L 420 478.5 Q 420 487 411.5 487 L 198.5 487 Q 190 487 190 495.5 L 190 504" fill="none" stroke="#48D7FE" stroke-width="1.5" stroke-linecap="round" marker-end="url(#a-teal)" opacity="0.9"/><path d="M 520 436 L 711 436 Q 720 436 720 445 L 720 641 Q 720 650 711 650 L 592 650" fill="none" stroke="#F7B83D" stroke-width="1.5" stroke-linecap="round" marker-end="url(#a-amber)" opacity="0.9"/><path d="M 190 576 L 190 587 Q 190 596 199 596 L 411 596 Q 420 596 420 605 L 420 614" fill="none" stroke="#48D7FE" stroke-width="1.5" stroke-linecap="round" marker-end="url(#a-teal)" opacity="0.9"/><path d="M 420 686 L 420 713" fill="none" stroke="#F7B83D" stroke-width="1.5" stroke-linecap="round" marker-end="url(#a-amber)" opacity="0.9"/><path d="M 300 748 L 209 748 Q 200 748 200 757 L 200 823" fill="none" stroke="#F7B83D" stroke-width="1.5" stroke-linecap="round" marker-end="url(#a-amber)" opacity="0.9"/><path d="M 540 748 L 661 748 Q 670 748 670 757 L 670 823" fill="none" stroke="#F7B83D" stroke-width="1.5" stroke-linecap="round" marker-end="url(#a-amber)" opacity="0.9"/><path d="M 200 895 L 200 905 Q 200 914 209 914 L 411 914 Q 420 914 420 923 L 420 933" fill="none" stroke="#F7B83D" stroke-width="1.5" stroke-linecap="round" marker-end="url(#a-amber)" opacity="0.9"/><path d="M 670 895 L 670 905 Q 670 914 661 914 L 429 914 Q 420 914 420 923 L 420 933" fill="none" stroke="#F7B83D" stroke-width="1.5" stroke-linecap="round" marker-end="url(#a-amber)" opacity="0.9"/><g><polygon points="420,402 520,436 420,470 320,436" fill="#171D20" stroke="#9AA5AA" stroke-opacity="0.5" stroke-width="1.2"/><text x="420" y="439.8" font-family="'Space Grotesk','Inter',ui-sans-serif,system-ui,-apple-system,'Segoe UI',Roboto,sans-serif" font-size="10.8" font-weight="600" fill="#E9EDEE" text-anchor="middle">ENTRY or HOP?</text></g><g><polygon points="420,714 540,748 420,782 300,748" fill="#171D20" stroke="#9AA5AA" stroke-opacity="0.5" stroke-width="1.2"/><text x="420" y="751.8" font-family="'Space Grotesk','Inter',ui-sans-serif,system-ui,-apple-system,'Segoe UI',Roboto,sans-serif" font-size="10.8" font-weight="600" fill="#E9EDEE" text-anchor="middle">manifest or segment?</text></g><g><rect x="250" y="92" width="340" height="70.8" rx="9" fill="#171D20" stroke="#2A3236" stroke-width="1"/><rect x="251.5" y="101" width="3" height="52.8" rx="1.5" fill="#9AA5AA"/><text x="268" y="115.4" font-family="'Space Grotesk','Inter',ui-sans-serif,system-ui,-apple-system,'Segoe UI',Roboto,sans-serif" font-size="12.6" font-weight="600" fill="#E9EDEE" letter-spacing="0.1">Player</text><text x="268" y="132.9" font-family="'Space Grotesk','Inter',ui-sans-serif,system-ui,-apple-system,'Segoe UI',Roboto,sans-serif" font-size="10.2" font-weight="400" fill="#9AA5AA">GET /api/ext/v1/&lt;source&gt;/&lt;enc-url&gt;</text><text x="268" y="147.3" font-family="'Space Grotesk','Inter',ui-sans-serif,system-ui,-apple-system,'Segoe UI',Roboto,sans-serif" font-size="10.2" font-weight="400" fill="#9AA5AA">?token=…  &amp;  ?pl=…</text></g><g><rect x="250" y="196" width="340" height="70.8" rx="9" fill="#171D20" stroke="#2A3236" stroke-width="1"/><rect x="251.5" y="205" width="3" height="52.8" rx="1.5" fill="#48D7FE"/><text x="268" y="219.4" font-family="'Space Grotesk','Inter',ui-sans-serif,system-ui,-apple-system,'Segoe UI',Roboto,sans-serif" font-size="12.6" font-weight="600" fill="#E9EDEE" letter-spacing="0.1">streamGate</text><text x="268" y="236.9" font-family="'Space Grotesk','Inter',ui-sans-serif,system-ui,-apple-system,'Segoe UI',Roboto,sans-serif" font-size="10.2" font-weight="400" fill="#9AA5AA">valid token? user enabled?</text><text x="268" y="251.3" font-family="'Space Grotesk','Inter',ui-sans-serif,system-ui,-apple-system,'Segoe UI',Roboto,sans-serif" font-size="10.2" font-weight="400" fill="#9AA5AA">source in the user's allow-list?</text></g><g><rect x="672" y="196" width="228" height="70.8" rx="9" fill="#171D20" stroke="#2A3236" stroke-width="1"/><rect x="673.5" y="205" width="3" height="52.8" rx="1.5" fill="#E0564B"/><text x="690" y="219.4" font-family="'Space Grotesk','Inter',ui-sans-serif,system-ui,-apple-system,'Segoe UI',Roboto,sans-serif" font-size="12.6" font-weight="600" fill="#E9EDEE" letter-spacing="0.1">401 / 403</text><text x="690" y="236.9" font-family="'Space Grotesk','Inter',ui-sans-serif,system-ui,-apple-system,'Segoe UI',Roboto,sans-serif" font-size="10.2" font-weight="400" fill="#9AA5AA">plain text, so a media</text><text x="690" y="251.3" font-family="'Space Grotesk','Inter',ui-sans-serif,system-ui,-apple-system,'Segoe UI',Roboto,sans-serif" font-size="10.2" font-weight="400" fill="#9AA5AA">player surfaces the reason</text></g><g><rect x="250" y="306" width="340" height="70.8" rx="9" fill="#171D20" stroke="#2A3236" stroke-width="1"/><rect x="251.5" y="315" width="3" height="52.8" rx="1.5" fill="#48D7FE"/><text x="268" y="329.4" font-family="'Space Grotesk','Inter',ui-sans-serif,system-ui,-apple-system,'Segoe UI',Roboto,sans-serif" font-size="12.6" font-weight="600" fill="#E9EDEE" letter-spacing="0.1">proxyRelay</text><text x="268" y="346.9" font-family="'Space Grotesk','Inter',ui-sans-serif,system-ui,-apple-system,'Segoe UI',Roboto,sans-serif" font-size="10.2" font-weight="400" fill="#9AA5AA">→ 127.0.0.1:8787</text><text x="268" y="361.3" font-family="'Space Grotesk','Inter',ui-sans-serif,system-ui,-apple-system,'Segoe UI',Roboto,sans-serif" font-size="10.2" font-weight="400" fill="#9AA5AA">inject client identity + secret</text></g><g><rect x="40" y="505" width="300" height="70.8" rx="9" fill="#171D20" stroke="#2A3236" stroke-width="1"/><rect x="41.5" y="514" width="3" height="52.8" rx="1.5" fill="#48D7FE"/><text x="58" y="528.4" font-family="'Space Grotesk','Inter',ui-sans-serif,system-ui,-apple-system,'Segoe UI',Roboto,sans-serif" font-size="12.6" font-weight="600" fill="#E9EDEE" letter-spacing="0.1">resolve seam → grant</text><text x="58" y="545.9" font-family="'Space Grotesk','Inter',ui-sans-serif,system-ui,-apple-system,'Segoe UI',Roboto,sans-serif" font-size="10.2" font-weight="400" fill="#9AA5AA">masterUrl · upstreamHeaders</text><text x="58" y="560.3" font-family="'Space Grotesk','Inter',ui-sans-serif,system-ui,-apple-system,'Segoe UI',Roboto,sans-serif" font-size="10.2" font-weight="400" fill="#9AA5AA">allowHosts · proxyConfig</text></g><g><rect x="250" y="615" width="340" height="70.8" rx="9" fill="#171D20" stroke="#2A3236" stroke-width="1"/><rect x="251.5" y="624" width="3" height="52.8" rx="1.5" fill="#F7B83D"/><text x="268" y="638.4" font-family="'Space Grotesk','Inter',ui-sans-serif,system-ui,-apple-system,'Segoe UI',Roboto,sans-serif" font-size="12.6" font-weight="600" fill="#E9EDEE" letter-spacing="0.1">fetch upstream</text><text x="268" y="655.9" font-family="'Space Grotesk','Inter',ui-sans-serif,system-ui,-apple-system,'Segoe UI',Roboto,sans-serif" font-size="10.2" font-weight="400" fill="#9AA5AA">retry 502 / 503 / 504 · mirror failover</text><text x="268" y="670.3" font-family="'Space Grotesk','Inter',ui-sans-serif,system-ui,-apple-system,'Segoe UI',Roboto,sans-serif" font-size="10.2" font-weight="400" fill="#9AA5AA">failover-group walk</text></g><g><rect x="40" y="824" width="320" height="70.8" rx="9" fill="#171D20" stroke="#2A3236" stroke-width="1"/><rect x="41.5" y="833" width="3" height="52.8" rx="1.5" fill="#F7B83D"/><text x="58" y="847.4" font-family="'Space Grotesk','Inter',ui-sans-serif,system-ui,-apple-system,'Segoe UI',Roboto,sans-serif" font-size="12.6" font-weight="600" fill="#E9EDEE" letter-spacing="0.1">rewrite child URIs</text><text x="58" y="864.9" font-family="'Space Grotesk','Inter',ui-sans-serif,system-ui,-apple-system,'Segoe UI',Roboto,sans-serif" font-size="10.2" font-weight="400" fill="#9AA5AA">re-embed token + pl</text><text x="58" y="879.3" font-family="'Space Grotesk','Inter',ui-sans-serif,system-ui,-apple-system,'Segoe UI',Roboto,sans-serif" font-size="10.2" font-weight="400" fill="#9AA5AA">grow the SSRF allow-set</text></g><g><rect x="500" y="824" width="340" height="70.8" rx="9" fill="#171D20" stroke="#2A3236" stroke-width="1"/><rect x="501.5" y="833" width="3" height="52.8" rx="1.5" fill="#F7B83D"/><text x="518" y="847.4" font-family="'Space Grotesk','Inter',ui-sans-serif,system-ui,-apple-system,'Segoe UI',Roboto,sans-serif" font-size="12.6" font-weight="600" fill="#E9EDEE" letter-spacing="0.1">relabel + pipe bytes</text><text x="518" y="864.9" font-family="'Space Grotesk','Inter',ui-sans-serif,system-ui,-apple-system,'Segoe UI',Roboto,sans-serif" font-size="10.2" font-weight="400" fill="#9AA5AA">bounded read-ahead buffer</text></g><g><rect x="250" y="934" width="340" height="56.4" rx="9" fill="#171D20" stroke="#2A3236" stroke-width="1"/><rect x="251.5" y="943" width="3" height="38.4" rx="1.5" fill="#9AA5AA"/><text x="268" y="957.4" font-family="'Space Grotesk','Inter',ui-sans-serif,system-ui,-apple-system,'Segoe UI',Roboto,sans-serif" font-size="12.6" font-weight="600" fill="#E9EDEE" letter-spacing="0.1">bytes → player</text><text x="268" y="974.9" font-family="'Space Grotesk','Inter',ui-sans-serif,system-ui,-apple-system,'Segoe UI',Roboto,sans-serif" font-size="10.2" font-weight="400" fill="#9AA5AA">durable HLS / raw-TS pipe</text></g><rect x="610.48" y="221.2" width="41.04" height="21.6" rx="10.8" fill="#0C0F11" stroke="#2A3236" stroke-width="1"/><text x="631" y="232.56" font-family="'JetBrains Mono',ui-monospace,SFMono-Regular,Menlo,Consolas,monospace" font-size="9.6" font-weight="400" fill="#E0564B" text-anchor="middle">deny</text><rect x="396.6" y="275.2" width="46.8" height="21.6" rx="10.8" fill="#0C0F11" stroke="#2A3236" stroke-width="1"/><text x="420" y="286.56" font-family="'JetBrains Mono',ui-monospace,SFMono-Regular,Menlo,Consolas,monospace" font-size="9.6" font-weight="400" fill="#48D7FE" text-anchor="middle">allow</text><rect x="276.6" y="476.2" width="46.8" height="21.6" rx="10.8" fill="#0C0F11" stroke="#2A3236" stroke-width="1"/><text x="300" y="487.56" font-family="'JetBrains Mono',ui-monospace,SFMono-Regular,Menlo,Consolas,monospace" font-size="9.6" font-weight="400" fill="#48D7FE" text-anchor="middle">ENTRY</text><rect x="702.36" y="529.2" width="35.28" height="21.6" rx="10.8" fill="#0C0F11" stroke="#2A3236" stroke-width="1"/><text x="720" y="540.56" font-family="'JetBrains Mono',ui-monospace,SFMono-Regular,Menlo,Consolas,monospace" font-size="9.6" font-weight="400" fill="#F7B83D" text-anchor="middle">HOP</text><rect x="167.96" y="774.2" width="64.08" height="21.6" rx="10.8" fill="#0C0F11" stroke="#2A3236" stroke-width="1"/><text x="200" y="785.56" font-family="'JetBrains Mono',ui-monospace,SFMono-Regular,Menlo,Consolas,monospace" font-size="9.6" font-weight="400" fill="#F7B83D" text-anchor="middle">manifest</text><rect x="640.84" y="774.2" width="58.32" height="21.6" rx="10.8" fill="#0C0F11" stroke="#2A3236" stroke-width="1"/><text x="670" y="785.56" font-family="'JetBrains Mono',ui-monospace,SFMono-Regular,Menlo,Consolas,monospace" font-size="9.6" font-weight="400" fill="#F7B83D" text-anchor="middle">segment</text><circle cx="36" cy="1019" r="4" fill="#9AA5AA"/><text x="46" y="1022" font-family="'Space Grotesk','Inter',ui-sans-serif,system-ui,-apple-system,'Segoe UI',Roboto,sans-serif" font-size="9.6" font-weight="400" fill="#5E696E">Client</text><circle cx="103.68" cy="1019" r="4" fill="#48D7FE"/><text x="113.68" y="1022" font-family="'Space Grotesk','Inter',ui-sans-serif,system-ui,-apple-system,'Segoe UI',Roboto,sans-serif" font-size="9.6" font-weight="400" fill="#5E696E">Node — control plane</text><circle cx="245.28" cy="1019" r="4" fill="#F7B83D"/><text x="255.28" y="1022" font-family="'Space Grotesk','Inter',ui-sans-serif,system-ui,-apple-system,'Segoe UI',Roboto,sans-serif" font-size="9.6" font-weight="400" fill="#5E696E">Rust — data plane</text><circle cx="371.04" cy="1019" r="4" fill="#E0564B"/><text x="381.04" y="1022" font-family="'Space Grotesk','Inter',ui-sans-serif,system-ui,-apple-system,'Segoe UI',Roboto,sans-serif" font-size="9.6" font-weight="400" fill="#5E696E">Deny / error path</text>
</svg>
